<svg width="166" height="62" viewBox="0 0 166 62" fill="none" xmlns="http://www.w3.org/2000/svg">
<g filter="url(#filter0_ddi_302_1119)">
<mask id="path-1-inside-1_302_1119" fill="white">
<path d="M8 18C8 8.05887 16.0589 0 26 0H140C149.941 0 158 8.05888 158 18V27C158 36.9411 149.941 45 140 45H26C16.0589 45 8 36.9411 8 27V18Z"/>
</mask>
<path d="M8 18C8 8.05887 16.0589 0 26 0H140C149.941 0 158 8.05888 158 18V27C158 36.9411 149.941 45 140 45H26C16.0589 45 8 36.9411 8 27V18Z" fill="white"/>
<path d="M26 0V1H140V0V-1H26V0ZM158 18H157V27H158H159V18H158ZM140 45V44H26V45V46H140V45ZM8 27H9V18H8H7V27H8ZM26 45V44C16.6112 44 9 36.3888 9 27H8H7C7 37.4934 15.5066 46 26 46V45ZM158 27H157C157 36.3888 149.389 44 140 44V45V46C150.493 46 159 37.4934 159 27H158ZM140 0V1C149.389 1 157 8.61116 157 18H158H159C159 7.50659 150.493 -1 140 -1V0ZM26 0V-1C15.5066 -1 7 7.50659 7 18H8H9C9 8.61116 16.6112 1 26 1V0Z" fill="#E6E7EA" mask="url(#path-1-inside-1_302_1119)"/>
<g clip-path="url(#clip0_302_1119)">
<g clip-path="url(#clip1_302_1119)">
<g clip-path="url(#clip2_302_1119)">
<path d="M43.6781 27.8674H43.0672C41.6163 27.8674 40.4272 26.6892 40.4272 25.2274V23.6674C40.2963 23.5474 39.9799 23.3619 39.7181 23.2528C39.4127 23.1219 39.2163 22.8274 39.2163 22.5001C39.2163 22.1728 39.4127 21.8783 39.7181 21.7474C39.9799 21.6383 40.2963 21.4528 40.4272 21.3328V19.7728C40.4272 18.3219 41.6054 17.1328 43.0672 17.1328H43.6781C44.1254 17.1328 44.4963 17.5037 44.4963 17.951C44.4963 18.3983 44.1254 18.7692 43.6781 18.7692H43.0672C42.5109 18.7692 42.0636 19.2164 42.0636 19.7728V21.4855C42.0636 21.8892 41.8563 22.2164 41.5727 22.5001C41.8563 22.7728 42.0636 23.111 42.0636 23.5146V25.2274C42.0636 25.7837 42.5109 26.231 43.0672 26.231H43.6781C44.1254 26.231 44.4963 26.6019 44.4963 27.0492C44.4963 27.4964 44.1254 27.8674 43.6781 27.8674Z" fill="url(#paint0_linear_302_1119)"/>
<path d="M47.9218 27.8674H47.3109C46.8636 27.8674 46.4927 27.4964 46.4927 27.0492C46.4927 26.6019 46.8636 26.231 47.3109 26.231H47.9218C48.4672 26.231 48.9254 25.7837 48.9254 25.2274V23.5146C48.9254 23.111 49.1327 22.7837 49.4163 22.5001C49.1327 22.2274 48.9254 21.8892 48.9254 21.4855V19.7728C48.9254 19.2164 48.4781 18.7692 47.9218 18.7692H47.3109C46.8636 18.7692 46.4927 18.3983 46.4927 17.951C46.4927 17.5037 46.8636 17.1328 47.3109 17.1328H47.9218C49.3727 17.1328 50.5618 18.311 50.5618 19.7728V21.3328C50.6927 21.4528 51.009 21.6383 51.2709 21.7474C51.5763 21.8783 51.7727 22.1728 51.7727 22.5001C51.7727 22.8274 51.5763 23.1219 51.2709 23.2528C51.009 23.3619 50.6927 23.5474 50.5618 23.6674V25.2274C50.5618 26.6783 49.3836 27.8674 47.9218 27.8674Z" fill="url(#paint1_linear_302_1119)"/>
<path d="M53.1364 31.5H37.8636C37.1109 31.5 36.5 30.8891 36.5 30.1364V14.8636C36.5 14.1109 37.1109 13.5 37.8636 13.5H53.1364C53.8891 13.5 54.5 14.1109 54.5 14.8636V30.1364C54.5 30.8891 53.8891 31.5 53.1364 31.5ZM38.1364 29.8636H52.8636V15.1364H38.1364V29.8636Z" fill="url(#paint2_linear_302_1119)"/>
</g>
</g>
</g>
<path d="M67.564 22.208H72.45V23.748H67.564V22.208ZM67.718 27.5H65.898V17.7H73.052V19.226H67.718V27.5ZM77.953 27.598C77.1223 27.598 76.3943 27.4347 75.769 27.108C75.153 26.772 74.6723 26.3147 74.327 25.736C73.991 25.1573 73.823 24.4993 73.823 23.762C73.823 23.0153 73.9863 22.3573 74.313 21.788C74.649 21.2093 75.1063 20.7567 75.685 20.43C76.273 20.1033 76.9403 19.94 77.687 19.94C78.415 19.94 79.0637 20.0987 79.633 20.416C80.2023 20.7333 80.6503 21.1813 80.977 21.76C81.3037 22.3387 81.467 23.02 81.467 23.804C81.467 23.8787 81.4623 23.9627 81.453 24.056C81.453 24.1493 81.4483 24.238 81.439 24.322H75.209V23.16H80.515L79.829 23.524C79.8383 23.0947 79.7497 22.7167 79.563 22.39C79.3763 22.0633 79.1197 21.8067 78.793 21.62C78.4757 21.4333 78.107 21.34 77.687 21.34C77.2577 21.34 76.8797 21.4333 76.553 21.62C76.2357 21.8067 75.9837 22.068 75.797 22.404C75.6197 22.7307 75.531 23.118 75.531 23.566V23.846C75.531 24.294 75.6337 24.6907 75.839 25.036C76.0443 25.3813 76.3337 25.6473 76.707 25.834C77.0803 26.0207 77.5097 26.114 77.995 26.114C78.415 26.114 78.793 26.0487 79.129 25.918C79.465 25.7873 79.7637 25.582 80.025 25.302L80.963 26.38C80.627 26.772 80.2023 27.0753 79.689 27.29C79.185 27.4953 78.6063 27.598 77.953 27.598ZM87.5489 27.5V25.988L87.4509 25.666V23.02C87.4509 22.5067 87.2969 22.11 86.9889 21.83C86.6809 21.5407 86.2143 21.396 85.5889 21.396C85.1689 21.396 84.7536 21.4613 84.3429 21.592C83.9416 21.7227 83.6009 21.9047 83.3209 22.138L82.6349 20.864C83.0363 20.556 83.5123 20.3273 84.0629 20.178C84.6229 20.0193 85.2016 19.94 85.7989 19.94C86.8816 19.94 87.7169 20.2013 88.3049 20.724C88.9023 21.2373 89.2009 22.0353 89.2009 23.118V27.5H87.5489ZM85.1969 27.598C84.6369 27.598 84.1469 27.5047 83.7269 27.318C83.3069 27.122 82.9803 26.856 82.7469 26.52C82.5229 26.1747 82.4109 25.7873 82.4109 25.358C82.4109 24.938 82.5089 24.56 82.7049 24.224C82.9103 23.888 83.2416 23.622 83.6989 23.426C84.1563 23.23 84.7629 23.132 85.5189 23.132H87.6889V24.294H85.6449C85.0476 24.294 84.6463 24.392 84.4409 24.588C84.2356 24.7747 84.1329 25.008 84.1329 25.288C84.1329 25.6053 84.2589 25.8573 84.5109 26.044C84.7629 26.2307 85.1129 26.324 85.5609 26.324C85.9903 26.324 86.3729 26.226 86.7089 26.03C87.0543 25.834 87.3016 25.5447 87.4509 25.162L87.7449 26.212C87.5769 26.6507 87.2736 26.9913 86.8349 27.234C86.4056 27.4767 85.8596 27.598 85.1969 27.598ZM94.2608 27.598C93.4395 27.598 92.8048 27.388 92.3568 26.968C91.9088 26.5387 91.6848 25.9087 91.6848 25.078V18.372H93.4348V25.036C93.4348 25.3907 93.5235 25.666 93.7008 25.862C93.8875 26.058 94.1442 26.156 94.4708 26.156C94.8628 26.156 95.1895 26.0533 95.4508 25.848L95.9408 27.094C95.7355 27.262 95.4835 27.388 95.1848 27.472C94.8862 27.556 94.5782 27.598 94.2608 27.598ZM90.4528 21.48V20.08H95.4368V21.48H90.4528ZM100.544 27.598C99.9098 27.598 99.3498 27.4813 98.8644 27.248C98.3791 27.0053 98.0011 26.6413 97.7304 26.156C97.4598 25.6613 97.3244 25.0407 97.3244 24.294V20.024H99.0744V24.056C99.0744 24.728 99.2238 25.232 99.5224 25.568C99.8304 25.8947 100.264 26.058 100.824 26.058C101.235 26.058 101.59 25.974 101.888 25.806C102.196 25.638 102.434 25.386 102.602 25.05C102.78 24.714 102.868 24.2987 102.868 23.804V20.024H104.618V27.5H102.952V25.484L103.246 26.1C102.994 26.5853 102.626 26.9587 102.14 27.22C101.655 27.472 101.123 27.598 100.544 27.598ZM106.91 27.5V20.024H108.576V22.082L108.38 21.48C108.604 20.976 108.954 20.5933 109.43 20.332C109.915 20.0707 110.517 19.94 111.236 19.94V21.606C111.161 21.5873 111.091 21.578 111.026 21.578C110.96 21.5687 110.895 21.564 110.83 21.564C110.167 21.564 109.64 21.76 109.248 22.152C108.856 22.5347 108.66 23.1087 108.66 23.874V27.5H106.91ZM116.166 27.598C115.335 27.598 114.607 27.4347 113.982 27.108C113.366 26.772 112.885 26.3147 112.54 25.736C112.204 25.1573 112.036 24.4993 112.036 23.762C112.036 23.0153 112.199 22.3573 112.526 21.788C112.862 21.2093 113.319 20.7567 113.898 20.43C114.486 20.1033 115.153 19.94 115.9 19.94C116.628 19.94 117.277 20.0987 117.846 20.416C118.415 20.7333 118.863 21.1813 119.19 21.76C119.517 22.3387 119.68 23.02 119.68 23.804C119.68 23.8787 119.675 23.9627 119.666 24.056C119.666 24.1493 119.661 24.238 119.652 24.322H113.422V23.16H118.728L118.042 23.524C118.051 23.0947 117.963 22.7167 117.776 22.39C117.589 22.0633 117.333 21.8067 117.006 21.62C116.689 21.4333 116.32 21.34 115.9 21.34C115.471 21.34 115.093 21.4333 114.766 21.62C114.449 21.8067 114.197 22.068 114.01 22.404C113.833 22.7307 113.744 23.118 113.744 23.566V23.846C113.744 24.294 113.847 24.6907 114.052 25.036C114.257 25.3813 114.547 25.6473 114.92 25.834C115.293 26.0207 115.723 26.114 116.208 26.114C116.628 26.114 117.006 26.0487 117.342 25.918C117.678 25.7873 117.977 25.582 118.238 25.302L119.176 26.38C118.84 26.772 118.415 27.0753 117.902 27.29C117.398 27.4953 116.819 27.598 116.166 27.598ZM123.671 27.598C123.046 27.598 122.444 27.5187 121.865 27.36C121.296 27.192 120.843 26.9913 120.507 26.758L121.179 25.428C121.515 25.6427 121.916 25.82 122.383 25.96C122.85 26.1 123.316 26.17 123.783 26.17C124.334 26.17 124.73 26.0953 124.973 25.946C125.225 25.7967 125.351 25.596 125.351 25.344C125.351 25.1387 125.267 24.9847 125.099 24.882C124.931 24.77 124.712 24.686 124.441 24.63C124.17 24.574 123.867 24.5227 123.531 24.476C123.204 24.4293 122.873 24.3687 122.537 24.294C122.21 24.21 121.912 24.0933 121.641 23.944C121.37 23.7853 121.151 23.5753 120.983 23.314C120.815 23.0527 120.731 22.7073 120.731 22.278C120.731 21.802 120.866 21.3913 121.137 21.046C121.408 20.6913 121.786 20.4207 122.271 20.234C122.766 20.038 123.349 19.94 124.021 19.94C124.525 19.94 125.034 19.996 125.547 20.108C126.06 20.22 126.485 20.3787 126.821 20.584L126.149 21.914C125.794 21.6993 125.435 21.5547 125.071 21.48C124.716 21.396 124.362 21.354 124.007 21.354C123.475 21.354 123.078 21.4333 122.817 21.592C122.565 21.7507 122.439 21.9513 122.439 22.194C122.439 22.418 122.523 22.586 122.691 22.698C122.859 22.81 123.078 22.8987 123.349 22.964C123.62 23.0293 123.918 23.0853 124.245 23.132C124.581 23.1693 124.912 23.23 125.239 23.314C125.566 23.398 125.864 23.5147 126.135 23.664C126.415 23.804 126.639 24.0047 126.807 24.266C126.975 24.5273 127.059 24.868 127.059 25.288C127.059 25.7547 126.919 26.1607 126.639 26.506C126.368 26.8513 125.981 27.122 125.477 27.318C124.973 27.5047 124.371 27.598 123.671 27.598Z" fill="#0D162F"/>
</g>
<defs>
<filter id="filter0_ddi_302_1119" x="0" y="-1" width="166" height="63" filterUnits="userSpaceOnUse" color-interpolation-filters="sRGB">
<feFlood flood-opacity="0" result="BackgroundImageFix"/>
<feColorMatrix in="SourceAlpha" type="matrix" values="0 0 0 0 0 0 0 0 0 0 0 0 0 0 0 0 0 0 127 0" result="hardAlpha"/>
<feOffset dy="2"/>
<feGaussianBlur stdDeviation="1"/>
<feComposite in2="hardAlpha" operator="out"/>
<feColorMatrix type="matrix" values="0 0 0 0 0.0509804 0 0 0 0 0.0862745 0 0 0 0 0.184314 0 0 0 0.05 0"/>
<feBlend mode="normal" in2="BackgroundImageFix" result="effect1_dropShadow_302_1119"/>
<feColorMatrix in="SourceAlpha" type="matrix" values="0 0 0 0 0 0 0 0 0 0 0 0 0 0 0 0 0 0 127 0" result="hardAlpha"/>
<feMorphology radius="5" operator="erode" in="SourceAlpha" result="effect2_dropShadow_302_1119"/>
<feOffset dy="9"/>
<feGaussianBlur stdDeviation="6.5"/>
<feComposite in2="hardAlpha" operator="out"/>
<feColorMatrix type="matrix" values="0 0 0 0 0.901961 0 0 0 0 0.905882 0 0 0 0 0.917647 0 0 0 1 0"/>
<feBlend mode="normal" in2="effect1_dropShadow_302_1119" result="effect2_dropShadow_302_1119"/>
<feBlend mode="normal" in="SourceGraphic" in2="effect2_dropShadow_302_1119" result="shape"/>
<feColorMatrix in="SourceAlpha" type="matrix" values="0 0 0 0 0 0 0 0 0 0 0 0 0 0 0 0 0 0 127 0" result="hardAlpha"/>
<feMorphology radius="1" operator="erode" in="SourceAlpha" result="effect3_innerShadow_302_1119"/>
<feOffset dy="-3"/>
<feComposite in2="hardAlpha" operator="arithmetic" k2="-1" k3="1"/>
<feColorMatrix type="matrix" values="0 0 0 0 0.952941 0 0 0 0 0.952941 0 0 0 0 0.956863 0 0 0 1 0"/>
<feBlend mode="normal" in2="shape" result="effect3_innerShadow_302_1119"/>
</filter>
<linearGradient id="paint0_linear_302_1119" x1="39.2163" y1="22.5001" x2="44.4963" y2="22.5001" gradientUnits="userSpaceOnUse">
<stop offset="0.11" stop-color="#6056FF"/>
<stop offset="1" stop-color="#FE7587"/>
</linearGradient>
<linearGradient id="paint1_linear_302_1119" x1="46.4927" y1="22.5001" x2="51.7727" y2="22.5001" gradientUnits="userSpaceOnUse">
<stop offset="0.11" stop-color="#6056FF"/>
<stop offset="1" stop-color="#FE7587"/>
</linearGradient>
<linearGradient id="paint2_linear_302_1119" x1="36.5" y1="22.5" x2="54.5" y2="22.5" gradientUnits="userSpaceOnUse">
<stop offset="0.11" stop-color="#6056FF"/>
<stop offset="1" stop-color="#FE7587"/>
</linearGradient>
<clipPath id="clip0_302_1119">
<rect width="18" height="18" fill="white" transform="translate(36.5 13.5)"/>
</clipPath>
<clipPath id="clip1_302_1119">
<rect width="18" height="18" fill="white" transform="translate(36.5 13.5)"/>
</clipPath>
<clipPath id="clip2_302_1119">
<rect width="18" height="18" fill="white" transform="translate(36.5 13.5)"/>
</clipPath>
</defs>
</svg>
