<svg width="59" height="60" viewBox="0 0 59 60" fill="none" xmlns="http://www.w3.org/2000/svg">
<path d="M27.6139 42.9287C28.2988 41.2769 29.1343 40.0663 29.4713 40.2383C33.7143 42.4103 37.6136 43.9903 39.9586 44.4893C42.7164 45.0762 42.812 45.2861 42.318 49.665C41.733 54.8559 38.8565 59.3545 35.8336 59.8066C33.4326 60.1646 27.1562 55.0071 25.0592 50.9521C23.8582 48.6302 23.8507 48.0243 25.0035 47.0674C25.7545 46.4444 26.9299 44.5817 27.6139 42.9287ZM20.9156 39.75C21.2376 42.3629 21.7901 45.7018 22.1441 47.1719C22.6901 49.4409 22.327 50.0819 19.735 51.4219C16.1259 53.2877 9.48282 53.4977 7.78477 51.7998C6.00278 50.0178 6.36826 44.072 8.55723 39.25C10.4472 35.087 10.5878 35 15.4088 35H20.3307L20.9156 39.75ZM48.9303 26.0254C52.5543 25.9184 59.2435 35.1182 57.9645 38.4512C57.0283 40.8911 50.1845 44.006 45.8746 43.9541C42.3566 43.9121 41.9241 43.5711 39.8551 39.2041C38.3041 35.9311 37.9843 34.3776 38.8043 34.0996C39.4523 33.8796 41.8058 31.979 44.0338 29.875C46.2614 27.7714 48.4649 26.0398 48.9303 26.0254ZM12.5846 16.0684C15.7644 16.0894 16.2882 16.5222 18.3131 20.7959C19.8331 24.0029 20.1753 25.6246 19.3873 25.8916C18.7513 26.1076 16.3474 28.0197 14.0465 30.1416C11.7447 32.2634 9.53081 33.9997 9.12754 34C7.42254 34 2.43819 29.6181 1.01719 26.8711C-1.10379 22.7681 0.0412955 20.1497 4.93125 17.9297C7.21525 16.8927 10.6596 16.0554 12.5846 16.0684ZM28.0846 29C28.5686 28.2171 29.1432 28.1593 29.8102 28.8262C30.3601 29.3762 30.4835 30.354 30.0846 31C29.6006 31.783 29.025 31.8408 28.358 31.1738C27.8083 30.6238 27.6856 29.6459 28.0846 29ZM22.6393 0C24.6093 0 32.979 7.44226 33.735 9.86426C34.068 10.9331 34.9097 10.7721 37.6227 9.11816C41.7394 6.60834 48.7448 6.284 50.5992 8.51758C52.2392 10.4946 51.2751 19.0161 49.0211 22.4551C47.6122 24.6069 46.5992 25 42.4693 25C37.5947 25 37.5846 24.993 37.5846 21.6494C37.5846 17.7884 35.775 12 34.568 12C34.1155 12.0012 32.7323 13.6888 31.4928 15.75C30.253 17.8126 29.1015 19.676 28.9352 19.8926C28.7682 20.1076 27.9213 19.6946 27.0523 18.9736C26.1831 18.2527 23.3606 17.1266 20.7789 16.4717C17.732 15.6987 15.9649 14.671 15.7418 13.541C15.1508 10.534 16.5552 5.30559 18.6832 2.60059C19.8081 1.17074 21.5893 0.000144268 22.6393 0Z" fill="#0D162F"/>
</svg>
