<svg width="180" height="36" viewBox="0 0 180 36" fill="none" xmlns="http://www.w3.org/2000/svg">
<path fill-rule="evenodd" clip-rule="evenodd" d="M0.653466 0.666C-0.322399 1.62239 -0.186513 3.23377 0.935622 4.00321C1.6739 4.50981 3.08123 4.66327 6.9942 4.66327H12.0908L12.0973 18.971C12.1042 34.7643 12.1834 35.3014 14.5345 35.5273C17.3007 35.7927 17.2838 35.8928 17.2838 19.4709V4.66327H22.6262C27.2524 4.66327 28.0646 4.55941 28.6848 3.8879C29.5875 2.91115 29.6031 1.52998 28.7211 0.666C28.1322 0.0894496 26.2501 0 14.6873 0C3.1245 0 1.24245 0.0894496 0.653466 0.666ZM71.6453 0.79318C70.9815 1.51132 70.9243 2.94252 71.0373 15.9488C71.1554 29.5571 71.2095 30.4003 72.0651 32.007C73.2647 34.2594 75.348 35.6104 77.6208 35.6104C81.9964 35.6104 82.7412 31.6687 78.4932 30.9925C75.7535 30.5563 75.7193 30.36 75.7124 15.0094C75.7063 2.37106 75.6496 1.3532 74.9144 0.70161C73.8701 -0.224261 72.5511 -0.18738 71.6453 0.79318ZM138.181 10.6267C134.653 11.6527 129.942 16.1565 128.898 19.501C128.643 20.317 128.341 23.7509 128.227 27.1318C127.997 33.9787 128.323 35.3014 130.297 35.5273C132.485 35.7783 132.83 34.844 132.83 28.6622C132.83 22.0026 133.446 19.4518 135.523 17.5267C137.396 15.7894 138.628 15.1849 141.45 14.6189C144.276 14.0517 145.196 13.0546 144.379 11.4424C143.926 10.5483 143.514 10.3745 141.691 10.3092C140.506 10.2668 138.927 10.4097 138.181 10.6267ZM34.012 11.3737C33.4027 12.0329 33.2962 13.253 33.3001 19.5344C33.304 26.3848 33.3776 27.0733 34.3162 29.0395C37.9535 36.6575 47.4266 38.3567 53.4371 32.4687C56.6637 29.3074 57.0974 27.7206 57.0974 19.0673C57.0974 12.7604 57.0125 11.9261 56.3059 11.3C55.2677 10.3796 53.9439 10.4097 53.0533 11.3737C52.4496 12.027 52.3371 13.2157 52.3371 18.9375C52.3371 25.2071 52.2609 25.868 51.3404 27.5727C49.3419 31.2749 44.7997 32.3457 41.1451 29.9764C38.4235 28.2119 38.0561 26.9321 38.0561 19.2131C38.0561 13.8075 37.9237 12.297 37.3823 11.5407C36.5653 10.3978 34.9857 10.3194 34.012 11.3737ZM97.3865 11.701C96.4656 12.8477 95.8576 15.0641 96.1133 16.3388C96.2098 16.8179 96.9745 17.2537 98.2931 17.5814C99.4105 17.8591 100.632 18.3364 101.008 18.6421C101.384 18.9477 101.751 19.1228 101.823 19.0317C101.895 18.9401 102.393 18.1499 102.93 17.2753C103.466 16.4011 104.065 15.6855 104.261 15.6855C104.783 15.6855 105.566 18.1393 105.566 19.7761C105.566 21.1937 105.57 21.1967 107.68 21.1967C109.467 21.1967 109.906 21.0301 110.515 20.1178C111.491 18.6599 111.908 15.0475 111.198 14.2094C110.396 13.2623 107.364 13.3997 105.582 14.4638C104.408 15.165 104.044 15.2332 103.9 14.78C103.573 13.7533 99.951 10.5983 99.0985 10.5983C98.6441 10.5983 97.8733 11.0948 97.3865 11.701ZM161.488 11.8901C152.337 16.3698 151.445 28.0326 159.821 33.6841C163.893 36.4316 169.727 36.6194 173.581 34.1275L175.167 33.1016L175.6 34.3162C176.149 35.8597 177.541 36.3214 178.939 35.4239C179.992 34.7486 180 34.6897 180 27.9856C180 22.2574 179.868 20.8821 179.131 18.9532C177.214 13.9351 172.377 10.5983 167.017 10.5983C164.661 10.5983 163.638 10.8374 161.488 11.8901ZM169.83 15.5622C170.306 15.6843 171.331 16.2498 172.106 16.8191C176.425 19.9889 176.207 26.8804 171.691 29.9458C170.161 30.9849 169.489 31.1591 167.017 31.1591C164.569 31.1591 163.868 30.9811 162.405 29.9874C160.038 28.3811 158.795 26.0855 158.795 23.3227C158.795 20.5977 159.73 18.5844 161.753 16.9501C164.003 15.134 166.49 14.7063 169.83 15.5622ZM91.4352 18.1995C89.3191 19.1406 88.8236 20.2505 89.7414 21.9899C90.3564 23.1544 92.5132 25.0121 93.2511 25.0121C93.4255 25.0121 94.3836 24.2761 95.3798 23.3766C96.3756 22.477 97.4159 21.6664 97.6912 21.5748C98.0322 21.4616 97.8842 20.774 97.2264 19.4145C96.35 17.6026 96.1233 17.419 94.7471 17.4101C93.9141 17.4046 92.4236 17.7599 91.4352 18.1995ZM108.357 23.2634C107.393 24.1553 106.374 24.9612 106.094 25.0545C105.739 25.1723 105.878 25.8307 106.549 27.2182C107.444 29.0696 107.631 29.2141 109.154 29.2319C111.019 29.254 113.981 27.9334 114.386 26.899C114.939 25.486 112.044 21.5859 110.476 21.6312C110.275 21.6372 109.321 22.3714 108.357 23.2634ZM101.455 22.8924C101.282 23.1663 101.335 23.5809 101.573 23.8141C101.862 24.0968 102.111 24.0722 102.32 23.7403C102.493 23.4664 102.44 23.0518 102.202 22.8187C101.913 22.5359 101.664 22.5605 101.455 22.8924ZM93.0044 27.2377C92.0571 29.282 91.8987 31.8027 92.6699 32.5581C93.4047 33.278 96.2799 33.1889 97.8417 32.3979C98.9635 31.8298 99.1205 31.558 98.8843 30.5961C98.7311 29.973 98.4918 28.5574 98.3524 27.4497L98.0992 25.436H95.9692C93.8829 25.436 93.8223 25.4729 93.0044 27.2377ZM101.251 28.7974C100.955 29.4982 100.447 30.2875 100.122 30.5516C99.6225 30.9573 99.626 31.2142 100.146 32.1986C101.053 33.9177 103.769 36.1043 104.808 35.9525C106.116 35.7609 107.362 33.8537 107.615 31.653C107.828 29.7966 107.787 29.7076 106.593 29.4587C105.579 29.2472 103.891 28.5774 102.055 27.6566C101.909 27.5837 101.547 28.0971 101.251 28.7974Z" fill="url(#paint0_linear_117_1583)"/>
<defs>
<linearGradient id="paint0_linear_117_1583" x1="0" y1="18" x2="180" y2="18" gradientUnits="userSpaceOnUse">
<stop stop-color="#6056FF"/>
<stop offset="1" stop-color="#FE7587"/>
</linearGradient>
</defs>
</svg>
