<svg width="166" height="62" viewBox="0 0 166 62" fill="none" xmlns="http://www.w3.org/2000/svg">
<g filter="url(#filter0_ddi_302_1126)">
<mask id="path-1-inside-1_302_1126" fill="white">
<path d="M8 18C8 8.05887 16.0589 0 26 0H140C149.941 0 158 8.05888 158 18V27C158 36.9411 149.941 45 140 45H26C16.0589 45 8 36.9411 8 27V18Z"/>
</mask>
<path d="M8 18C8 8.05887 16.0589 0 26 0H140C149.941 0 158 8.05888 158 18V27C158 36.9411 149.941 45 140 45H26C16.0589 45 8 36.9411 8 27V18Z" fill="white"/>
<path d="M26 0V1H140V0V-1H26V0ZM158 18H157V27H158H159V18H158ZM140 45V44H26V45V46H140V45ZM8 27H9V18H8H7V27H8ZM26 45V44C16.6112 44 9 36.3888 9 27H8H7C7 37.4934 15.5066 46 26 46V45ZM158 27H157C157 36.3888 149.389 44 140 44V45V46C150.493 46 159 37.4934 159 27H158ZM140 0V1C149.389 1 157 8.61116 157 18H158H159C159 7.50659 150.493 -1 140 -1V0ZM26 0V-1C15.5066 -1 7 7.50659 7 18H8H9C9 8.61116 16.6112 1 26 1V0Z" fill="#E6E7EA" mask="url(#path-1-inside-1_302_1126)"/>
<g clip-path="url(#clip0_302_1126)">
<g clip-path="url(#clip1_302_1126)">
<g clip-path="url(#clip2_302_1126)">
<path d="M49.0397 22.3835H50.3522C50.6629 22.3835 50.9147 22.6354 50.9147 22.946V29.321C50.9147 29.6317 50.6629 29.8835 50.3522 29.8835H40.2272C39.9165 29.8835 39.6647 29.6317 39.6647 29.321V22.946C39.6647 22.6354 39.9165 22.3835 40.2272 22.3835H41.5397M49.0397 22.3835V18.6336C49.0397 17.3836 48.2897 14.8835 45.2897 14.8835C42.2897 14.8835 41.5397 17.3836 41.5397 18.6336V22.3835M49.0397 22.3835H41.5397" stroke="url(#paint0_linear_302_1126)" stroke-width="1.6875" stroke-linecap="round" stroke-linejoin="round"/>
</g>
</g>
</g>
<path d="M70.8911 27.64C70.1258 27.64 69.3931 27.5327 68.6931 27.318C67.9931 27.094 67.4378 26.8093 67.0271 26.464L67.6571 25.05C68.0491 25.358 68.5344 25.6147 69.1131 25.82C69.6918 26.0253 70.2844 26.128 70.8911 26.128C71.4044 26.128 71.8198 26.072 72.1371 25.96C72.4544 25.848 72.6878 25.6987 72.8371 25.512C72.9864 25.316 73.0611 25.0967 73.0611 24.854C73.0611 24.5553 72.9538 24.3173 72.7391 24.14C72.5244 23.9533 72.2444 23.8087 71.8991 23.706C71.5631 23.594 71.1851 23.4913 70.7651 23.398C70.3544 23.3047 69.9391 23.1973 69.5191 23.076C69.1084 22.9453 68.7304 22.782 68.3851 22.586C68.0491 22.3807 67.7738 22.11 67.5591 21.774C67.3444 21.438 67.2371 21.0087 67.2371 20.486C67.2371 19.954 67.3771 19.4687 67.6571 19.03C67.9464 18.582 68.3804 18.2273 68.9591 17.966C69.5471 17.6953 70.2891 17.56 71.1851 17.56C71.7731 17.56 72.3564 17.6347 72.9351 17.784C73.5138 17.9333 74.0178 18.148 74.4471 18.428L73.8731 19.842C73.4344 19.5807 72.9818 19.3893 72.5151 19.268C72.0484 19.1373 71.6004 19.072 71.1711 19.072C70.6671 19.072 70.2564 19.1327 69.9391 19.254C69.6311 19.3753 69.4024 19.534 69.2531 19.73C69.1131 19.926 69.0431 20.15 69.0431 20.402C69.0431 20.7007 69.1458 20.9433 69.3511 21.13C69.5658 21.3073 69.8411 21.4473 70.1771 21.55C70.5224 21.6527 70.9051 21.7553 71.3251 21.858C71.7451 21.9513 72.1604 22.0587 72.5711 22.18C72.9911 22.3013 73.3691 22.46 73.7051 22.656C74.0504 22.852 74.3258 23.118 74.5311 23.454C74.7458 23.79 74.8531 24.2147 74.8531 24.728C74.8531 25.2507 74.7084 25.736 74.4191 26.184C74.1391 26.6227 73.7051 26.9773 73.1171 27.248C72.5291 27.5093 71.7871 27.64 70.8911 27.64ZM80.0038 27.598C79.1731 27.598 78.4451 27.4347 77.8198 27.108C77.2038 26.772 76.7231 26.3147 76.3778 25.736C76.0418 25.1573 75.8738 24.4993 75.8738 23.762C75.8738 23.0153 76.0371 22.3573 76.3638 21.788C76.6998 21.2093 77.1571 20.7567 77.7358 20.43C78.3238 20.1033 78.9911 19.94 79.7378 19.94C80.4658 19.94 81.1145 20.0987 81.6838 20.416C82.2531 20.7333 82.7011 21.1813 83.0278 21.76C83.3545 22.3387 83.5178 23.02 83.5178 23.804C83.5178 23.8787 83.5131 23.9627 83.5038 24.056C83.5038 24.1493 83.4991 24.238 83.4898 24.322H77.2598V23.16H82.5658L81.8798 23.524C81.8891 23.0947 81.8005 22.7167 81.6138 22.39C81.4271 22.0633 81.1705 21.8067 80.8438 21.62C80.5265 21.4333 80.1578 21.34 79.7378 21.34C79.3085 21.34 78.9305 21.4333 78.6038 21.62C78.2865 21.8067 78.0345 22.068 77.8478 22.404C77.6705 22.7307 77.5818 23.118 77.5818 23.566V23.846C77.5818 24.294 77.6845 24.6907 77.8898 25.036C78.0951 25.3813 78.3845 25.6473 78.7578 25.834C79.1311 26.0207 79.5605 26.114 80.0458 26.114C80.4658 26.114 80.8438 26.0487 81.1798 25.918C81.5158 25.7873 81.8145 25.582 82.0758 25.302L83.0138 26.38C82.6778 26.772 82.2531 27.0753 81.7398 27.29C81.2358 27.4953 80.6571 27.598 80.0038 27.598ZM88.6288 27.598C87.8448 27.598 87.1448 27.4347 86.5288 27.108C85.9221 26.772 85.4461 26.3147 85.1008 25.736C84.7554 25.1573 84.5828 24.4993 84.5828 23.762C84.5828 23.0153 84.7554 22.3573 85.1008 21.788C85.4461 21.2093 85.9221 20.7567 86.5288 20.43C87.1448 20.1033 87.8448 19.94 88.6288 19.94C89.3568 19.94 89.9961 20.0893 90.5468 20.388C91.1068 20.6773 91.5314 21.1067 91.8208 21.676L90.4768 22.46C90.2528 22.1053 89.9774 21.844 89.6508 21.676C89.3334 21.508 88.9881 21.424 88.6148 21.424C88.1854 21.424 87.7981 21.5173 87.4528 21.704C87.1074 21.8907 86.8368 22.1613 86.6408 22.516C86.4448 22.8613 86.3468 23.2767 86.3468 23.762C86.3468 24.2473 86.4448 24.6673 86.6408 25.022C86.8368 25.3673 87.1074 25.6333 87.4528 25.82C87.7981 26.0067 88.1854 26.1 88.6148 26.1C88.9881 26.1 89.3334 26.016 89.6508 25.848C89.9774 25.68 90.2528 25.4187 90.4768 25.064L91.8208 25.848C91.5314 26.408 91.1068 26.842 90.5468 27.15C89.9961 27.4487 89.3568 27.598 88.6288 27.598ZM96.4975 27.598C95.8629 27.598 95.3029 27.4813 94.8175 27.248C94.3322 27.0053 93.9542 26.6413 93.6835 26.156C93.4129 25.6613 93.2775 25.0407 93.2775 24.294V20.024H95.0275V24.056C95.0275 24.728 95.1769 25.232 95.4755 25.568C95.7835 25.8947 96.2175 26.058 96.7775 26.058C97.1882 26.058 97.5429 25.974 97.8415 25.806C98.1495 25.638 98.3875 25.386 98.5555 25.05C98.7329 24.714 98.8215 24.2987 98.8215 23.804V20.024H100.572V27.5H98.9055V25.484L99.1995 26.1C98.9475 26.5853 98.5789 26.9587 98.0935 27.22C97.6082 27.472 97.0762 27.598 96.4975 27.598ZM102.863 27.5V20.024H104.529V22.082L104.333 21.48C104.557 20.976 104.907 20.5933 105.383 20.332C105.868 20.0707 106.47 19.94 107.189 19.94V21.606C107.114 21.5873 107.044 21.578 106.979 21.578C106.914 21.5687 106.848 21.564 106.783 21.564C106.12 21.564 105.593 21.76 105.201 22.152C104.809 22.5347 104.613 23.1087 104.613 23.874V27.5H102.863ZM108.673 27.5V20.024H110.423V27.5H108.673ZM109.555 18.792C109.229 18.792 108.958 18.6893 108.743 18.484C108.538 18.2787 108.435 18.0313 108.435 17.742C108.435 17.4433 108.538 17.196 108.743 17C108.958 16.7947 109.229 16.692 109.555 16.692C109.882 16.692 110.148 16.79 110.353 16.986C110.568 17.1727 110.675 17.4107 110.675 17.7C110.675 18.008 110.573 18.2693 110.367 18.484C110.162 18.6893 109.891 18.792 109.555 18.792ZM115.534 27.598C114.713 27.598 114.078 27.388 113.63 26.968C113.182 26.5387 112.958 25.9087 112.958 25.078V18.372H114.708V25.036C114.708 25.3907 114.797 25.666 114.974 25.862C115.161 26.058 115.418 26.156 115.744 26.156C116.136 26.156 116.463 26.0533 116.724 25.848L117.214 27.094C117.009 27.262 116.757 27.388 116.458 27.472C116.16 27.556 115.852 27.598 115.534 27.598ZM111.726 21.48V20.08H116.71V21.48H111.726ZM119.133 30.314C118.769 30.314 118.405 30.2533 118.041 30.132C117.677 30.0107 117.374 29.8427 117.131 29.628L117.831 28.34C118.008 28.4987 118.209 28.6247 118.433 28.718C118.657 28.8113 118.886 28.858 119.119 28.858C119.436 28.858 119.693 28.7787 119.889 28.62C120.085 28.4613 120.267 28.1953 120.435 27.822L120.869 26.842L121.009 26.632L123.837 20.024H125.517L122.017 28.102C121.784 28.662 121.522 29.1053 121.233 29.432C120.953 29.7587 120.636 29.9873 120.281 30.118C119.936 30.2487 119.553 30.314 119.133 30.314ZM120.673 27.766L117.299 20.024H119.119L121.863 26.478L120.673 27.766Z" fill="#0D162F"/>
</g>
<defs>
<filter id="filter0_ddi_302_1126" x="0" y="-1" width="166" height="63" filterUnits="userSpaceOnUse" color-interpolation-filters="sRGB">
<feFlood flood-opacity="0" result="BackgroundImageFix"/>
<feColorMatrix in="SourceAlpha" type="matrix" values="0 0 0 0 0 0 0 0 0 0 0 0 0 0 0 0 0 0 127 0" result="hardAlpha"/>
<feOffset dy="2"/>
<feGaussianBlur stdDeviation="1"/>
<feComposite in2="hardAlpha" operator="out"/>
<feColorMatrix type="matrix" values="0 0 0 0 0.0509804 0 0 0 0 0.0862745 0 0 0 0 0.184314 0 0 0 0.05 0"/>
<feBlend mode="normal" in2="BackgroundImageFix" result="effect1_dropShadow_302_1126"/>
<feColorMatrix in="SourceAlpha" type="matrix" values="0 0 0 0 0 0 0 0 0 0 0 0 0 0 0 0 0 0 127 0" result="hardAlpha"/>
<feMorphology radius="5" operator="erode" in="SourceAlpha" result="effect2_dropShadow_302_1126"/>
<feOffset dy="9"/>
<feGaussianBlur stdDeviation="6.5"/>
<feComposite in2="hardAlpha" operator="out"/>
<feColorMatrix type="matrix" values="0 0 0 0 0.901961 0 0 0 0 0.905882 0 0 0 0 0.917647 0 0 0 1 0"/>
<feBlend mode="normal" in2="effect1_dropShadow_302_1126" result="effect2_dropShadow_302_1126"/>
<feBlend mode="normal" in="SourceGraphic" in2="effect2_dropShadow_302_1126" result="shape"/>
<feColorMatrix in="SourceAlpha" type="matrix" values="0 0 0 0 0 0 0 0 0 0 0 0 0 0 0 0 0 0 127 0" result="hardAlpha"/>
<feMorphology radius="1" operator="erode" in="SourceAlpha" result="effect3_innerShadow_302_1126"/>
<feOffset dy="-3"/>
<feComposite in2="hardAlpha" operator="arithmetic" k2="-1" k3="1"/>
<feColorMatrix type="matrix" values="0 0 0 0 0.952941 0 0 0 0 0.952941 0 0 0 0 0.956863 0 0 0 1 0"/>
<feBlend mode="normal" in2="shape" result="effect3_innerShadow_302_1126"/>
</filter>
<linearGradient id="paint0_linear_302_1126" x1="39.6647" y1="22.3835" x2="50.9147" y2="22.3835" gradientUnits="userSpaceOnUse">
<stop offset="0.11" stop-color="#6056FF"/>
<stop offset="1" stop-color="#FE7587"/>
</linearGradient>
<clipPath id="clip0_302_1126">
<rect width="18" height="18" fill="white" transform="translate(36.5 13.5)"/>
</clipPath>
<clipPath id="clip1_302_1126">
<rect width="18" height="18" fill="white" transform="translate(36.5 13.5)"/>
</clipPath>
<clipPath id="clip2_302_1126">
<rect width="14.625" height="18" fill="white" transform="translate(38.1875 13.5)"/>
</clipPath>
</defs>
</svg>
